# xmcd
#
# Track frame offsets:
#	150
#	20805
#	43430
#	58135
#	80805
#	108230
#	128815
#	149775
#	170660
#	200498
#
# Disc length: 2878 seconds
#
# Revision: 1158826039
# Processed by: cddbd v1.5.2PL0 Copyright (c) Steve Scherf et al.
# Submitted via: EZCDAudioConverter 8.0.2.1
#
DISCID=a10b3c0a
DTITLE=Various Artist - Đêm Sài Gòn in Las Vegas
DYEAR=1993
DGENRE=
TTITLE0=Don Hồ - Hãy sống cho tuổi trẻ
TTITLE1=Elvis Phương - Tôi muốn, Yêu người yêu đời
TTITLE2=Anh Quý - Áo lụa Hà Đông
TTITLE3=Trizie Phương Trinh - Hoang vắng
TTITLE4=Thanh Tuyền - Chuyện ba người
TTITLE5=Công Thành, Lynn - Kim
TTITLE6=Lệ Thu - Xin còn gọi tên nhau
TTITLE7=Thúy Vi - Trưng Vương khung cửa mùa thu
TTITLE8=Phương Loan, Chí Tài Brothers - Liên khúc mưa
TTITLE9=Soundtrack - Áo lụa Hà Đông
EXTD=
EXTT0=
EXTT1=
EXTT2=
EXTT3=
EXTT4=
EXTT5=
EXTT6=
EXTT7=
EXTT8=
EXTT9=
PLAYORDER=
